# xmcd CD database file
#
# Track frame offsets:
#	150
#	14160
#	30707
#	44682
#	65411
#	77767
#	92575
#	107253
#	124426
#	138882
#	158499
#	172054
#
# Disc length: 2528 seconds
#
# Revision: 0
# Processed by: cddbd v1.5.2PL0 Copyright (c) Steve Scherf et al.
# Submitted via: CDex 1.51
#
DISCID=9c09de0c
DTITLE=The Guilty Bystanders - A Good Line And A Dollar
DYEAR=2007
DGENRE=Country
TTITLE0=Kill Number
TTITLE1=I'm Not Deceived
TTITLE2=I Don't Want Your Money
TTITLE3=Show Me
TTITLE4=Somebody Else's Other Woman
TTITLE5=Father Than The Stars
TTITLE6=What She's Got Goin'
TTITLE7=Somebody, Maybe Me
TTITLE8=Stop And Think
TTITLE9=She'll Keep You Guessin'
TTITLE10=Hell Or High Water
TTITLE11=You Love My Woman
EXTD=YEAR: 2007
EXTT0=
EXTT1=
EXTT2=
EXTT3=
EXTT4=
EXTT5=
EXTT6=
EXTT7=
EXTT8=
EXTT9=
EXTT10=
EXTT11=
PLAYORDER=
